<svg width="42" height="42" viewBox="0 0 42 42" fill="none" xmlns="http://www.w3.org/2000/svg">
<path d="M14 24.5H22.75M14 17.5H21H28M5.25 24.5V17.5C5.25 10.9008 5.25 7.60025 7.301 5.551C9.352 3.50175 12.6508 3.5 19.25 3.5H22.75C29.3492 3.5 32.6497 3.5 34.699 5.551C35.8435 6.69375 36.3493 8.225 36.5715 10.5L36.75 17.5V24.5C36.75 31.0992 36.75 34.3997 34.699 36.449C32.648 38.4982 29.3492 38.5 22.75 38.5H19.25C12.6508 38.5 9.35025 38.5 7.301 36.449C6.1565 35.3062 5.65075 33.775 5.4285 31.5L5.25 24.5Z" stroke="#667EEA" style="stroke:#667EEA;stroke:color(display-p3 0.4000 0.4941 0.9176);stroke-opacity:1;" stroke-width="3.5" stroke-linecap="round"/>
</svg>
