<svg width="100" height="100" viewBox="0 0 100 100" fill="none" xmlns="http://www.w3.org/2000/svg">
<rect width="100" height="100" fill="white" style="fill:white;fill-opacity:1;"/>
<rect x="17.3223" y="28.542" width="65.4582" height="56.2711" fill="#2149F3" style="fill:#2149F3;fill:color(display-p3 0.1294 0.2863 0.9529);fill-opacity:1;"/>
<rect x="17.3223" y="84.8134" width="65.4582" height="9.18712" fill="black" style="fill:black;fill-opacity:1;"/>
<path d="M70.7228 27.4745V42.735C70.7228 44.7271 69.1756 46.342 67.267 46.342C65.3584 46.342 63.8112 44.7271 63.8112 42.735V27.4745C63.8112 19.0464 57.2653 12.214 49.1905 12.214C41.1157 12.214 34.5698 19.0464 34.5698 27.4745V42.735C34.5698 44.7271 33.0226 46.342 31.114 46.342C29.2054 46.342 27.6582 44.7271 27.6582 42.735V27.4745C27.6582 15.0622 37.2985 5 49.1905 5C61.0825 5 70.7228 15.0622 70.7228 27.4745Z" fill="black" style="fill:black;fill-opacity:1;"/>
</svg>
